<?xml version="1.0" standalone="yes"?>
<svg xmlns="http://www.w3.org/2000/svg" width="3500" height="1075">
<path style="fill:#010101; stroke:none;" d="M0 0L0 166L1 166C2.97291 161.017 6.54371 157.918 12 157.188C26.1793 155.293 41.6916 157 56 157C62.2822 157 69.498 156.014 74.9961 159.703C84.0748 165.794 85.2621 178.28 88 188C113.094 170.531 135.123 155.015 166 149.261C181.01 146.464 196.853 146.032 212 147.845C269.4 154.713 309.216 198.036 324.709 252C349.537 338.477 328.936 469.277 231 500.656C218.838 504.553 205.761 506.674 193 506.985C169.565 507.558 145.064 501.94 124 491.742C114.863 487.318 107.146 480.07 98 476L98 584C98 597.234 101.827 617.929 95.544 629.985C91.3895 637.956 81.628 637 74 637L22 637C13.3287 637 5.1754 636.873 1 628L0 628L0 1075L1709 1075L1709 1074C1648.62 1074 1587.39 1065.14 1528 1054.42C1367.17 1025.42 1208.99 964.079 1072 874.656C1008.5 833.204 946.243 788.131 891 735.964C878.5 724.16 858.792 711.584 851 696C845.906 685.812 850.366 673.08 862 670.533C873.176 668.087 886.18 679.429 895 684.95C920.089 700.655 946.128 714.797 972 729.139C1061.66 778.839 1158.43 818.48 1256 849.656C1530.14 937.245 1823.87 957.412 2106 898.997C2206.09 878.274 2304.1 848.956 2399 811C2420.53 802.389 2441.9 793.394 2463 783.769C2475.57 778.036 2489.71 773.155 2502 782.532C2525.99 800.833 2508.99 824.1 2491 838.21C2450.56 869.921 2407.01 897.588 2362 922.306C2246.85 985.544 2120.8 1027.96 1992 1052.8C1931.56 1064.46 1868.59 1074 1807 1074L1807 1075L3500 1075L3500 352L3499 352C3498.97 400.048 3473.99 451.536 3435 479.572C3383.09 516.898 3299.51 520.342 3244 488.573C3186.41 455.61 3163.56 390.488 3164 327C3164.43 266.269 3185 202.172 3240 169.453C3293.95 137.357 3374.89 137.636 3428 171.436C3470.86 198.711 3498.97 252.115 3499 303L3500 303L3500 0L2318 0L2318 1C2354.55 3.98474 2371.92 47.6663 2355.68 78C2345.91 96.2408 2325.11 105.235 2305 104.982C2284.88 104.728 2264.5 95.5544 2254.98 77C2239.58 46.967 2257.38 3.90942 2293 1L2293 0L726 0L726 1C761.749 4.12122 778.597 47.0526 763.623 77C754.068 96.1118 732.538 105.141 712 104.995C692.129 104.855 671.998 96.0703 662.324 78C646.107 47.7075 663.547 3.97705 700 1L681 0L640 0L497 0L0 0z"/>
<path style="fill:#01abe1; stroke:none;" d="M700 0.438965C659.917 6.69983 641.389 57.0229 668.616 87.9105C682.74 103.934 706.033 106.816 726 103.725C765.098 97.6742 783.035 48.9446 758.181 18.0146C744.693 1.23035 720.273 -2.72766 700 0.438965z"/>
<path style="fill:#232f3f; stroke:none;" d="M2293 0.438965C2254.78 6.40942 2235.37 53.7903 2259.53 85C2273.51 103.067 2297.65 107.035 2319 103.704C2356.77 97.8113 2375.3 50.7948 2352.39 20C2338.95 1.94189 2314.22 -2.875 2293 0.438965z"/>
<path style="fill:#01ffff; stroke:none;" d="M739 4L740 5L739 4z"/>
<path style="fill:#26283d; stroke:none;" d="M2659 4L2660 5L2659 4z"/>
<path style="fill:#232f3f; stroke:none;" d="M2650 176C2588.84 123.87 2490.09 142.642 2447.86 208C2437.41 224.185 2429.57 242.299 2424.9 261C2402.47 350.716 2423.66 487.684 2534 504.725C2548.51 506.966 2564.45 507.157 2579 505.13C2607.59 501.146 2633.26 488.93 2655 470C2656.79 477.801 2658.17 488.982 2664.21 494.725C2674.1 504.117 2701.22 499 2714 499C2724.26 499 2742.84 502.777 2746.7 489.996C2751.2 475.092 2748 455.481 2748 440L2748 336L2748 124C2748 89.2132 2751.31 52.597 2747.83 18C2747.28 12.5292 2745.58 7.05627 2740 4.89355C2734.2 2.64771 2726.12 4 2720 4L2677 4C2669.1 4 2657.05 1.80188 2652.44 10.0439C2645.61 22.2731 2650 45.3209 2650 59L2650 176z"/>
<path style="fill:#01ffff; stroke:none;" d="M745 7L746 8L745 7z"/>
<path style="fill:#26283d; stroke:none;" d="M2652 9L2653 10L2652 9M2342 10L2343 11L2342 10M2267 11L2268 12L2267 11z"/>
<path style="fill:#01ffff; stroke:none;" d="M665 20L666 21L665 20M763 26L764 27L763 26M657 39L658 40L657 39z"/>
<path style="fill:#26283d; stroke:none;" d="M2361 47L2362 48L2361 47M2255 78L2256 79L2255 78z"/>
<path style="fill:#01ffff; stroke:none;" d="M758 85L759 86L758 85M668 87L669 88L668 87z"/>
<path style="fill:#26283d; stroke:none;" d="M2348 88L2349 89L2348 88M2347 89L2348 90L2347 89M2341 94L2342 95L2341 94M2278 99L2279 100L2278 99M2327 101L2328 102L2327 101M2299 104L2300 105L2299 104z"/>
<path style="fill:#01abe1; stroke:none;" d="M88 188C86.233 179.439 84.5998 167.402 77.8951 161.225C68.4341 152.508 45.0575 157 33 157C22.9629 157 4.2419 153.233 0.572531 166C-3.35779 179.675 0 198.776 0 213L0 316L0 522C0 555.918 -2.85321 591.224 0.0941358 625C0.861033 633.789 8.08835 636.899 16 636.996C34.6604 637.225 53.338 637 72 637C79.1297 637 90.3649 638.803 94.9907 631.891C102.077 621.304 98 599.198 98 587L98 475C153.516 527.979 253.556 512.923 296.572 453C308.488 436.4 317.015 418.38 323.33 399C352.456 309.622 328.971 163.366 217 148.282C201.273 146.164 184.69 146.114 169 148.59C139.295 153.277 109.575 166.87 88 188M932 189C930.684 180.057 927.761 165.333 919.957 159.854C910.23 153.025 889.46 157 878 157C866.585 157 846.403 152.867 843.468 168C839.065 190.705 843 217.857 843 241L843 390L843 457C843 467.317 840.991 480.1 844.225 489.999C847.127 498.885 855.012 498.999 863 499L915 499C921.879 499 931.279 500.709 936.775 495.606C941.893 490.854 941 483.322 941 477L941 431L941 293L941 256C941 251.888 939.705 244.997 942.028 241.394C945.295 236.326 956.591 233.965 962 231.95C981.354 224.741 1007.62 218.582 1028 224.721C1059.67 234.261 1054 273.383 1054 299L1054 440L1054 476C1054 481.891 1053.23 488.818 1056.88 493.892C1061.59 500.446 1070.96 499 1078 499L1123 499C1129.4 499 1137.97 500.463 1144 497.991C1152.24 494.607 1152 485.513 1152 478L1152 424L1152 289L1152 254C1152 249.954 1150.86 243.758 1153.6 240.394C1156.98 236.242 1165.1 234.319 1170 232.667C1183.85 228 1198.28 223.684 1213 223.039C1220.85 222.696 1229.33 222.369 1237 224.239C1269.22 232.095 1264 271.922 1264 297L1264 426C1264 445.308 1260.18 469.201 1264.53 488C1266.87 498.126 1275.13 498.999 1284 499L1335 499C1341.57 499 1351.38 500.807 1356.89 496.486C1366.05 489.313 1362 468.311 1362 458L1362 350L1362 264C1362 240.011 1362.53 216.141 1351.74 194C1318.59 125.974 1224.55 142.974 1170 170.247C1158.94 175.775 1148.25 182.089 1138 189C1127.27 164.442 1099.09 151.446 1074 148C1022.61 140.942 973.888 160.741 932 189M1507 353C1565.36 360.858 1636.17 368.99 1687 331.241C1725.94 302.325 1730.33 240.979 1706.55 201C1693.95 179.818 1673.84 165.045 1651 156.425C1589.16 133.084 1505.97 147.219 1461.17 197C1446.42 213.389 1435.61 233.141 1428.67 254C1403.97 328.138 1411.96 435.809 1483 482.304C1532.38 514.62 1601.3 515.371 1657 501.626C1670.27 498.351 1690.59 495.24 1700.95 485.786C1711.1 476.519 1707 454.429 1707 442C1707 437.065 1707.1 431.643 1705.01 427.043C1701.93 420.296 1694.21 420.49 1688 421.888C1671.34 425.639 1654.94 430.118 1638 432.572C1588.72 439.707 1528.26 434.711 1511.59 379C1509.08 370.607 1507.18 361.785 1507 353z"/>
<path style="fill:#26283d; stroke:none;" d="M2577 147L2578 148L2577 147M3311 147L3312 148L3311 147z"/>
<path style="fill:#232f3f; stroke:none;" d="M3312 147.424C3270.67 152.853 3233.6 165.721 3205.18 198C3176.81 230.229 3166.66 273.233 3164.96 315C3162.72 370.254 3173.65 429.512 3216 468.911C3253.98 504.241 3309.9 513.946 3360 507.714C3395.41 503.308 3430.19 489.534 3454.91 463C3489.94 425.409 3500 375.766 3500 326C3500 280.694 3490.55 234.54 3460.56 199C3425.42 157.352 3365.1 140.449 3312 147.424z"/>
<path style="fill:#26283d; stroke:none;" d="M2585 148L2586 149L2585 148M3362 148L3363 149L3362 148M2530 149L2531 150L2530 149z"/>
<path style="fill:#232f3f; stroke:none;" d="M2904 352C2958.7 362.607 3031.71 366.137 3079 331.076C3138.05 287.3 3114.01 191.113 3053 162.887C2993.66 135.432 2905.6 147.651 2861.17 197C2848.61 210.954 2838.12 227.529 2831.2 245C2803.19 315.728 2807.86 425.188 2874 473.985C2922.27 509.598 2989.44 511.138 3046 498.576C3060.04 495.456 3083.23 492.194 3093.77 481.671C3097.5 477.948 3097.64 472.904 3098.28 468C3099.86 455.89 3101.93 436.483 3096.99 425.015C3094.03 418.131 3086.32 418.373 3080 419.666C3064.3 422.879 3048.98 427.907 3033 429.845C2984.52 435.724 2925.25 433.683 2908.59 378C2906.08 369.598 2904.07 360.8 2904 352z"/>
<path style="fill:#26283d; stroke:none;" d="M3001 150L3002 151L3001 150z"/>
<path style="fill:#01ffff; stroke:none;" d="M155 151L156 152L155 151z"/>
<path style="fill:#26283d; stroke:none;" d="M3285 151L3286 152L3285 151M3379 151L3380 152L3379 151z"/>
<path style="fill:#01abe1; stroke:none;" d="M490 207C489.026 195.079 485.472 168.495 475.815 160.638C470.177 156.051 462.776 157 456 157L416 157C409.584 157.01 402.779 157.505 399.573 164.015C396.153 170.96 398 181.457 398 189L398 245L398 417L398 467C398 474.373 396.384 484.034 399.148 490.996C402.354 499.071 410.634 499 418 499L471 499C477.64 499 486.479 500.562 491.772 495.606C496.743 490.951 496 483.186 496 477L496 434L496 315C496 298.724 492.076 276.731 496.318 261.055C498.349 253.548 515.515 251.248 522 249.627C543.584 244.229 565.727 241.564 588 243.089C596.55 243.675 609.532 246.771 615.142 237.956C618.622 232.488 618 224.197 618 218L618 180C618 173.664 618.646 165.833 615.544 160.043C612.677 154.692 606.519 153.704 601 153.17C556.321 148.843 518.093 174.843 490 207z"/>
<path style="fill:#01ffff; stroke:none;" d="M1306 153L1307 154L1306 153z"/>
<path style="fill:#26283d; stroke:none;" d="M3277 153L3278 154L3277 153M3387 153L3388 154L3387 153z"/>
<path style="fill:#01ffff; stroke:none;" d="M574 154L575 155L574 154z"/>
<path style="fill:#26283d; stroke:none;" d="M2937 154L2938 155L2937 154M3027 154L3028 155L3027 154z"/>
<path style="fill:#01ffff; stroke:none;" d="M1205 155L1206 156L1205 155z"/>
<path style="fill:#26283d; stroke:none;" d="M2933 155L2934 156L2933 155M2929 156L2930 157L2929 156z"/>
<path style="fill:#01abe1; stroke:none;" d="M673 157.653C661.314 161.324 664 175.489 664 185L664 265L664 432L664 475C664 481.07 662.726 488.746 666.653 493.895C671.688 500.498 680.695 499 688 499L731 499C737.892 499 746.363 500.304 752.996 498.196C763.735 494.783 762 480.852 762 472L762 391L762 222L762 180C762 174.002 762.669 166.149 758.487 161.225C753.529 155.387 743.784 157 737 157L694 157C687.481 157 679.27 155.683 673 157.653z"/>
<path style="fill:#01ffff; stroke:none;" d="M1105 157L1106 158L1105 157z"/>
<path style="fill:#232f3f; stroke:none;" d="M2040 408C2027.15 367.806 2016 326.7 2004.85 286C1996.61 255.951 1988.13 225.781 1978.98 196C1975.76 185.54 1974.21 169.101 1965.79 161.394C1959.67 155.796 1950.62 157 1943 157L1891 157C1883.73 157 1872.2 154.952 1869.57 164.005C1867.42 171.437 1872.01 180.194 1874.58 187L1893.57 237C1917.49 300.408 1941.51 363.804 1965.94 427C1972.62 444.283 1978.75 461.781 1985.6 479C1989.36 488.452 1994.01 497.075 2005 498.699C2023.25 501.395 2043.55 499 2062 499C2069.71 499 2078.56 499.94 2084.91 494.606C2092.11 488.549 2095.32 476.607 2098.34 468C2104.01 451.85 2110.74 436.055 2116.68 420C2138.56 360.844 2160.71 301.599 2184 243C2191.12 225.099 2197.5 206.906 2204.6 189C2207.39 181.964 2212.8 171.74 2210.35 164.015C2207.5 155.072 2196.31 157 2189 157L2139 157C2131.34 157 2122.37 156.023 2116.1 161.394C2107.89 168.439 2105.88 185.012 2103 195C2095.02 222.7 2086.67 250.293 2078.71 278C2070.26 307.394 2061.54 336.725 2052.72 366C2048.55 379.83 2045.71 394.731 2040 408z"/>
<path style="fill:#26283d; stroke:none;" d="M2124 157L2125 158L2124 157z"/>
<path style="fill:#232f3f; stroke:none;" d="M2266 157.653C2254.8 161.182 2257 174.862 2257 184L2257 264L2257 432L2257 475C2257 481.079 2255.84 488.661 2259.85 493.786C2264.79 500.075 2273.95 499 2281 499L2324 499C2330.61 499 2338.63 500.204 2345 498.196C2356.47 494.58 2354 480.38 2354 471L2354 391L2354 222L2354 179C2354 173.203 2355.17 166.029 2351.2 161.225C2346.34 155.356 2336.74 157 2330 157L2287 157C2280.49 157 2272.26 155.678 2266 157.653z"/>
<path style="fill:#26283d; stroke:none;" d="M2620 158L2621 159L2620 158z"/>
<path style="fill:#01ffff; stroke:none;" d="M615 159L616 160L615 159M3 160L4 161L3 160z"/>
<path style="fill:#26283d; stroke:none;" d="M3407 160L3408 161L3407 160z"/>
<path style="fill:#01ffff; stroke:none;" d="M1662 161L1663 162L1662 161z"/>
<path style="fill:#26283d; stroke:none;" d="M2209 161L2210 162L2209 161M2351 161L2352 162L2351 161M2914 161L2915 162L2914 161z"/>
<path style="fill:#01ffff; stroke:none;" d="M125 162L126 163L125 162M478 163L479 164L478 163z"/>
<path style="fill:#26283d; stroke:none;" d="M1869 163L1870 164L1869 163M3057 165L3058 166L3057 165z"/>
<path style="fill:#01ffff; stroke:none;" d="M538 166L539 167L538 166z"/>
<path style="fill:#26283d; stroke:none;" d="M2488 166L2489 167L2488 166z"/>
<path style="fill:#01ffff; stroke:none;" d="M1120 167L1121 168L1120 167z"/>
<path style="fill:#26283d; stroke:none;" d="M3241 168L3242 169L3241 168z"/>
<path style="fill:#01ffff; stroke:none;" d="M270 169L271 170L270 169M1171 169L1172 170L1171 169z"/>
<path style="fill:#26283d; stroke:none;" d="M2481 171L2482 172L2481 171M3428 171L3429 172L3428 171z"/>
<path style="fill:#01ffff; stroke:none;" d="M927 172L928 173L927 172M959 172L960 173L959 172z"/>
<path style="fill:#26283d; stroke:none;" d="M1870 175L1871 176L1870 175M2476 175L2477 176L2476 175M3230 175L3231 176L3230 175z"/>
<path style="fill:#01ffff; stroke:none;" d="M1129 176L1130 177L1129 176z"/>
<path style="fill:#26283d; stroke:none;" d="M3438 178L3439 179L3438 178z"/>
<path style="fill:#01ffff; stroke:none;" d="M1153 179L1154 180L1153 179z"/>
<path style="fill:#26283d; stroke:none;" d="M3081 182L3082 183L3081 182z"/>
<path style="fill:#01ffff; stroke:none;" d="M1475 183L1476 184L1475 183z"/>
<path style="fill:#26283d; stroke:none;" d="M3082 183L3083 184L3082 183M3083 184L3084 185L3083 184M1874 186L1875 187L1874 186M2871 187L2872 188L2871 187z"/>
<path style="fill:#01ffff; stroke:none;" d="M508 188L509 189L508 188z"/>
<path style="fill:#26283d; stroke:none;" d="M2459 192L2460 193L2459 192z"/>
<path style="fill:#01ffff; stroke:none;" d="M487 194L488 195L487 194z"/>
<path style="fill:#26283d; stroke:none;" d="M1877 194L1878 195L1877 194M2455 197L2456 198L2455 197M3094 197L3095 198L3094 197M1879 199L1880 200L1879 199M3096 200L3097 201L3096 200z"/>
<path style="fill:#01ffff; stroke:none;" d="M301 201L302 202L301 201z"/>
<path style="fill:#26283d; stroke:none;" d="M2452 201L2453 202L2452 201z"/>
<path style="fill:#01ffff; stroke:none;" d="M492 204L493 205L492 204z"/>
<path style="fill:#26283d; stroke:none;" d="M2450 204L2451 205L2450 204M3200 204L3201 205L3200 204M2854 205L2855 206L2854 205M3099 205L3100 206L3099 205z"/>
<path style="fill:#01ffff; stroke:none;" d="M305 207L306 208L305 207z"/>
<path style="fill:#26283d; stroke:none;" d="M1882 207L1883 208L1882 207M3100 207L3101 208L3100 207M3101 209L3102 210L3101 209M2446 210L2447 211L2446 210z"/>
<path style="fill:#01ffff; stroke:none;" d="M308 212L309 213L308 212z"/>
<path style="fill:#26283d; stroke:none;" d="M1983 212L1984 213L1983 212M2848 213L2849 214L2848 213M3103 213L3104 214L3103 213z"/>
<path style="fill:#010101; stroke:none;" d="M1508 293C1523.81 297.09 1540.75 298 1557 298C1570.46 298 1583.77 298.535 1597 295.575C1626.64 288.943 1643.42 252.609 1620.81 228.04C1613.02 219.568 1601.93 217.138 1591 215.718C1562.18 211.974 1534.36 223.924 1520.31 250C1513.23 263.145 1509.86 278.299 1508 293z"/>
<path style="fill:#26283d; stroke:none;" d="M1885 215L1886 216L1885 215M2443 215L2444 216L2443 215z"/>
<path style="fill:#010101; stroke:none;" d="M2905 294C2923.98 294.815 2942.86 299.768 2962 298.961C2973.34 298.482 2985.03 297.717 2996 294.573C3023.17 286.785 3034.95 250.864 3014.67 229.174C3007.5 221.497 2996.98 219.009 2987 217.579C2957.15 213.303 2928.48 226.244 2915.32 254C2909.6 266.06 2905.57 280.639 2905 294z"/>
<path style="fill:#26283d; stroke:none;" d="M3105 218L3106 219L3105 218M1985 219L1986 220L1985 219M2844 219L2845 220L2844 219z"/>
<path style="fill:#010101; stroke:none;" d="M154 221.424C139.363 223.352 125.659 225.825 112 231.719C107.876 233.498 101.544 235.353 99.0278 239.379C94.123 247.226 98 267.785 98 277L98 374L98 403C98 406.338 97.0662 411.472 99.0278 414.39C102.258 419.195 110.884 421.554 116 423.6C133.501 430.6 154.165 434.027 173 431.714C193.901 429.147 212.015 418.218 221.63 399C227.571 387.126 230.41 374.052 232.271 361C239.087 313.182 237.733 229.194 175 222.05C167.975 221.25 161.066 220.494 154 221.424z"/>
<path style="fill:#26283d; stroke:none;" d="M2576 221L2577 222L2576 221z"/>
<path style="fill:#010101; stroke:none;" d="M2577 221.425C2532.74 227.45 2519.62 267.667 2516.91 307C2513.78 352.499 2517.45 422.591 2575 430.869C2585.44 432.37 2595.56 432.195 2606 430.714C2617.52 429.08 2642.15 423.981 2648.97 413.471C2653.9 405.876 2650 385.019 2650 376L2650 278L2650 249C2650 245.715 2650.96 240.484 2648.97 237.637C2645.73 232.988 2636.14 230.399 2631 228.667C2614.24 223.02 2594.75 219.009 2577 221.425z"/>
<path style="fill:#01ffff; stroke:none;" d="M144 222L145 223L144 222z"/>
<path style="fill:#26283d; stroke:none;" d="M2605 222L2606 223L2605 222M3188 222L3189 223L3188 222z"/>
<path style="fill:#010101; stroke:none;" d="M3328 222.424C3318.59 223.648 3309.52 224.943 3301 229.49C3263.45 249.521 3263.09 302.403 3263.99 339C3264.93 377.589 3275.58 424.536 3320 432.385C3327.17 433.652 3335.78 433.649 3343 432.711C3403.83 424.806 3404.06 345.351 3400 299C3398.96 287.173 3396.33 275.062 3392 264C3381.82 238.006 3357.18 218.629 3328 222.424z"/>
<path style="fill:#26283d; stroke:none;" d="M2616 224L2617 225L2616 224M2841 224L2842 225L2841 224M3107 224L3108 225L3107 224M3477 224L3478 225L3477 224M2190 225L2191 226L2190 225M3011 226L3012 227L3011 226M3478 226L3479 227L3478 226z"/>
<path style="fill:#01ffff; stroke:none;" d="M1539 227L1540 228L1539 227z"/>
<path style="fill:#26283d; stroke:none;" d="M2630 228L2631 229L2630 228z"/>
<path style="fill:#01ffff; stroke:none;" d="M198 229L199 230L198 229z"/>
<path style="fill:#26283d; stroke:none;" d="M3363 229L3364 230L3363 229M2933 230L2934 231L2933 230M3299 230L3300 231L3299 230z"/>
<path style="fill:#01ffff; stroke:none;" d="M1361 231L1362 232L1361 231M1623 231L1624 232L1623 231z"/>
<path style="fill:#26283d; stroke:none;" d="M2092 231L2093 232L2092 231M3368 232L3369 233L3368 232z"/>
<path style="fill:#01ffff; stroke:none;" d="M1718 233L1719 234L1718 233z"/>
<path style="fill:#26283d; stroke:none;" d="M1989 233L1990 234L1989 233M2642 233L2643 234L2642 233M3293 234L3294 235L3293 234M3482 234L3483 235L3482 234z"/>
<path style="fill:#01ffff; stroke:none;" d="M102 236L103 237L102 236z"/>
<path style="fill:#26283d; stroke:none;" d="M1893 236L1894 237L1893 236z"/>
<path style="fill:#01ffff; stroke:none;" d="M320 238L321 239L320 238M945 238L946 239L945 238z"/>
<path style="fill:#26283d; stroke:none;" d="M2924 239L2925 240L2924 239z"/>
<path style="fill:#01ffff; stroke:none;" d="M1258 240L1259 241L1258 240z"/>
<path style="fill:#26283d; stroke:none;" d="M2537 241L2538 242L2537 241M3284 243L3285 244L3284 243M2182 246L2183 247L2182 246M2429 246L2430 247L2429 246M1993 247L1994 248L1993 247M2087 248L2088 249L2087 248M2532 248L2533 249L2532 248M2918 248L2919 249L2918 248M2428 249L2429 250L2428 249z"/>
<path style="fill:#01ffff; stroke:none;" d="M219 250L220 251L219 250z"/>
<path style="fill:#26283d; stroke:none;" d="M3279 250L3280 251L3279 250M3386 252L3387 253L3386 252z"/>
<path style="fill:#01ffff; stroke:none;" d="M223 258L224 259L223 258z"/>
<path style="fill:#26283d; stroke:none;" d="M3390 260L3391 261L3390 260z"/>
<path style="fill:#01ffff; stroke:none;" d="M327 262L328 263L327 262z"/>
<path style="fill:#26283d; stroke:none;" d="M3273 262L3274 263L3273 262z"/>
<path style="fill:#01ffff; stroke:none;" d="M225 263L226 264L225 263z"/>
<path style="fill:#26283d; stroke:none;" d="M2082 265L2083 266L2082 265M3392 265L3393 266L3392 265M2174 267L2175 268L2174 267M2000 271L2001 272L2000 271M2172 272L2173 273L2172 272M3169 274L3170 275L3169 274M2421 277L2422 278L2421 277M2002 278L2003 279L2002 278M2169 280L2170 281L2169 280M2077 282L2078 283L2077 282M3267 282L3268 283L3267 282M2820 283L2821 284L2820 283M3015 283L3016 284L3015 283M2519 284L2520 285L2519 284M3167 285L3168 286L3167 285z"/>
<path style="fill:#01ffff; stroke:none;" d="M231 287L232 288L231 287z"/>
<path style="fill:#26283d; stroke:none;" d="M2166 288L2167 289L2166 288M2006 292L2007 293L2006 292M3106 293L3107 294L3106 293z"/>
<path style="fill:#01ffff; stroke:none;" d="M232 294L233 295L232 294M332 294L333 295L332 294z"/>
<path style="fill:#26283d; stroke:none;" d="M2992 295L2993 296L2992 295M2818 296L2819 297L2818 296M2934 297L2935 298L2934 297M2966 298L2967 299L2966 298M2969 298L2970 299L2969 298M2072 299L2073 300L2072 299M2161 301L2162 302L2161 301M3400 303L3401 304L3400 303M3101 304L3102 305L3101 304M2158 309L2159 310L2158 309z"/>
<path style="fill:#01ffff; stroke:none;" d="M333 310L334 311L333 310z"/>
<path style="fill:#26283d; stroke:none;" d="M2516 310L2517 311L2516 310M2067 316L2068 317L2067 316z"/>
<path style="fill:#01ffff; stroke:none;" d="M1698 320L1699 321L1698 320z"/>
<path style="fill:#26283d; stroke:none;" d="M2816 321L2817 322L2816 321M3164 322L3165 323L3164 322M2015 323L2016 324L2015 323z"/>
<path style="fill:#01ffff; stroke:none;" d="M1693 325L1694 326L1693 325z"/>
<path style="fill:#26283d; stroke:none;" d="M3401 327L3402 328L3401 327M1928 328L1929 329L1928 328M2017 330L2018 331L2017 330z"/>
<path style="fill:#01ffff; stroke:none;" d="M1683 333L1684 334L1683 333z"/>
<path style="fill:#26283d; stroke:none;" d="M3073 334L3074 335L3073 334M3164 334L3165 335L3164 334z"/>
<path style="fill:#01ffff; stroke:none;" d="M1680 335L1681 336L1680 335z"/>
<path style="fill:#26283d; stroke:none;" d="M2060 340L2061 341L2060 340M2516 343L2517 344L2516 343M2021 344L2022 345L2021 344M1936 349L1937 350L1936 349M2142 351L2143 352L2142 351M3032 351L3033 352L3032 351M3400 351L3401 352L3400 351M3499 351L3500 352L3499 351M3028 352L3029 353L3028 352M3018 354L3019 355L3018 354M2055 357L2056 358L2055 357M2940 357L2941 358L2940 357M2817 358L2818 359L2817 358M2969 358L2970 359L2969 358z"/>
<path style="fill:#01ffff; stroke:none;" d="M1418 362L1419 363L1418 362z"/>
<path style="fill:#26283d; stroke:none;" d="M2518 362L2519 363L2518 362z"/>
<path style="fill:#01ffff; stroke:none;" d="M1508 366L1509 367L1508 366z"/>
<path style="fill:#26283d; stroke:none;" d="M1944 370L1945 371L1944 370z"/>
<path style="fill:#01ffff; stroke:none;" d="M1509 371L1510 372L1509 371z"/>
<path style="fill:#26283d; stroke:none;" d="M2420 373L2421 374L2420 373M1946 375L1947 376L1946 375M3495 380L3496 381L3495 380z"/>
<path style="fill:#01ffff; stroke:none;" d="M1512 382L1513 383L1512 382z"/>
<path style="fill:#26283d; stroke:none;" d="M2032 382L2033 383L2032 382M1949 383L1950 384L1949 383M3270 384L3271 385L3270 384M2821 385L2822 386L2821 385z"/>
<path style="fill:#01ffff; stroke:none;" d="M225 389L226 390L225 389z"/>
<path style="fill:#26283d; stroke:none;" d="M2034 389L2035 390L2034 389M2525 389L2526 390L2525 389z"/>
<path style="fill:#01ffff; stroke:none;" d="M1515 390L1516 391L1515 390z"/>
<path style="fill:#26283d; stroke:none;" d="M3272 390L3273 391L3272 390M1952 391L1953 392L1952 391z"/>
<path style="fill:#01ffff; stroke:none;" d="M223 394L224 395L223 394z"/>
<path style="fill:#26283d; stroke:none;" d="M3274 395L3275 396L3274 395M1954 396L1955 397L1954 396M3174 400L3175 401L3174 400M3277 401L3278 402L3277 401M2038 403L2039 404L2038 403M2532 403L2533 404L2532 403M1957 404L1958 405L1957 404z"/>
<path style="fill:#01ffff; stroke:none;" d="M1427 406L1428 407L1427 406z"/>
<path style="fill:#26283d; stroke:none;" d="M2534 406L2535 407L2534 406M3384 406L3385 407L3384 406z"/>
<path style="fill:#01ffff; stroke:none;" d="M215 408L216 409L215 408M1428 409L1429 410L1428 409z"/>
<path style="fill:#26283d; stroke:none;" d="M2925 409L2926 410L2925 409M3177 409L3178 410L3177 409M3282 409L3283 410L3282 409M3382 409L3383 410L3382 409M2926 410L2927 411L2926 410M2927 411L2928 412L2927 411M1960 412L1961 413L1960 412M3179 414L3180 415L3179 414M3377 415L3378 416L3377 415z"/>
<path style="fill:#01ffff; stroke:none;" d="M1431 417L1432 418L1431 417z"/>
<path style="fill:#26283d; stroke:none;" d="M3374 418L3375 419L3374 418M3291 419L3292 420L3291 419z"/>
<path style="fill:#01ffff; stroke:none;" d="M200 422L201 423L200 422z"/>
<path style="fill:#26283d; stroke:none;" d="M2551 422L2552 423L2551 422M3069 422L3070 423L3069 422M3369 422L3370 423L3369 422z"/>
<path style="fill:#01ffff; stroke:none;" d="M1434 424L1435 425L1434 424z"/>
<path style="fill:#26283d; stroke:none;" d="M2948 424L2949 425L2948 424M3366 424L3367 425L3366 424z"/>
<path style="fill:#01ffff; stroke:none;" d="M1549 425L1550 426L1549 425z"/>
<path style="fill:#26283d; stroke:none;" d="M1965 425L1966 426L1965 425M2835 426L2836 427L2835 426M2437 429L2438 430L2437 429M3035 429L3036 430L3035 429z"/>
<path style="fill:#01ffff; stroke:none;" d="M141 430L142 431L141 430z"/>
<path style="fill:#26283d; stroke:none;" d="M2579 431L2580 432L2579 431M3187 431L3188 432L3187 431M3315 431L3316 432L3315 431M3320 432L3321 433L3320 432M3344 432L3345 433L3344 432M1968 433L1969 434L1968 433M2439 433L2440 434L2439 433M3474 436L3475 437L3474 436M1970 438L1971 439L1970 438M2843 440L2844 441L2843 440M3193 441L3194 442L3193 441M2444 442L2445 443L2444 442M2107 443L2108 444L2107 443M2845 443L2846 444L2845 443M3195 444L3196 445L3195 444z"/>
<path style="fill:#01ffff; stroke:none;" d="M301 445L302 446L301 445M299 448L300 449L299 448M1448 448L1449 449L1448 448z"/>
<path style="fill:#26283d; stroke:none;" d="M1976 454L1977 455L1976 454z"/>
<path style="fill:#01ffff; stroke:none;" d="M1455 457L1456 458L1455 457z"/>
<path style="fill:#26283d; stroke:none;" d="M2857 458L2858 459L2857 458M3206 458L3207 459L3206 458M3458 458L3459 459L3458 458M2099 464L2100 465L2099 464M2864 465L2865 466L2864 465M2865 466L2866 467L2865 466M3098 466L3099 467L3098 466M2463 467L2464 468L2463 467M2465 469L2466 470L2465 469M2466 470L2467 471L2466 470M2467 471L2468 472L2467 471M3220 472L3221 473L3220 472M2650 473L2651 474L2650 473M3097 474L3098 475L3097 474z"/>
<path style="fill:#01ffff; stroke:none;" d="M98 475L99 476L98 475z"/>
<path style="fill:#26283d; stroke:none;" d="M2876 475L2877 476L2876 475M3440 475L3441 476L3440 475z"/>
<path style="fill:#01ffff; stroke:none;" d="M1475 476L1476 477L1475 476z"/>
<path style="fill:#26283d; stroke:none;" d="M3225 476L3226 477L3225 476M2094 477L2095 478L2094 477M2645 477L2646 478L2645 477M2475 478L2476 479L2475 478M2885 481L2886 482L2885 481M2092 482L2093 483L2092 482M2483 484L2484 485L2483 484M2635 484L2636 485L2635 484M2892 485L2893 486L2892 485M3426 485L3427 486L3426 485M2747 486L2748 487L2747 486M2894 486L2895 487L2894 486z"/>
<path style="fill:#01ffff; stroke:none;" d="M115 487L116 488L115 487M843 487L844 488L843 487z"/>
<path style="fill:#26283d; stroke:none;" d="M1989 487L1990 488L1989 487M2630 487L2631 488L2630 487M2896 487L2897 488L2896 487z"/>
<path style="fill:#01ffff; stroke:none;" d="M1054 488L1055 489L1054 488z"/>
<path style="fill:#26283d; stroke:none;" d="M2898 488L2899 489L2898 488M3243 488L3244 489L3243 488z"/>
<path style="fill:#01ffff; stroke:none;" d="M256 489L257 490L256 489z"/>
<path style="fill:#26283d; stroke:none;" d="M2353 489L2354 490L2353 489M3074 490L3075 491L3074 490z"/>
<path style="fill:#01ffff; stroke:none;" d="M1056 493L1057 494L1056 493z"/>
<path style="fill:#26283d; stroke:none;" d="M3253 493L3254 494L3253 493M3255 494L3256 495L3255 494M2614 495L2615 496L2614 495z"/>
<path style="fill:#01ffff; stroke:none;" d="M134 496L135 497L134 496M1269 496L1270 497L1269 496z"/>
<path style="fill:#26283d; stroke:none;" d="M3054 496L3055 497L3054 496M3260 496L3261 497L3260 496z"/>
<path style="fill:#01ffff; stroke:none;" d="M934 497L935 498L934 497z"/>
<path style="fill:#26283d; stroke:none;" d="M2264 497L2265 498L2264 497M2609 497L2610 498L2609 497M2668 497L2669 498L2668 497M2922 497L2923 498L2922 497M3050 497L3051 498L3050 497z"/>
<path style="fill:#01ffff; stroke:none;" d="M407 498L408 499L407 498z"/>
<path style="fill:#26283d; stroke:none;" d="M2076 498L2077 499L2076 498M2267 498L2268 499L2267 498M2510 498L2511 499L2510 498z"/>
<path style="fill:#01ffff; stroke:none;" d="M1519 499L1520 500L1519 499z"/>
<path style="fill:#26283d; stroke:none;" d="M3041 499L3042 500L3041 499M3268 499L3269 500L3268 499M3396 499L3397 500L3396 499M2939 501L2940 502L2939 501M2523 502L2524 503L2523 502M2588 503L2589 504L2588 503z"/>
<path style="fill:#01ffff; stroke:none;" d="M216 504L217 505L216 504z"/>
<path style="fill:#26283d; stroke:none;" d="M3286 504L3287 505L3286 504M3378 504L3379 505L3378 504M3291 505L3292 506L3291 505M3367 506L3368 507L3367 506z"/>
<path style="fill:#01ffff; stroke:none;" d="M97 622L98 623L97 622z"/>
<path style="fill:#01abe1; stroke:none;" d="M2515 649.424C2460.96 656.52 2409.48 662.697 2361 690.427C2349.14 697.213 2333.04 705.176 2325.56 717.001C2321.29 723.742 2320.34 733.546 2329 737.297C2342.6 743.182 2367.58 734.711 2382 733.166C2424.01 728.666 2465.78 725.109 2508 726.961C2527.79 727.829 2553.89 729.423 2568.96 744.093C2583.42 758.175 2579.22 785.143 2576.41 803C2568.54 852.983 2551.65 901.508 2534.69 949C2529.44 963.717 2520.9 979.589 2518.33 995C2517.08 1002.48 2518.94 1011.39 2528 1011.85C2540.84 1012.51 2550.95 999.062 2559 991C2584.15 965.805 2602.47 934.638 2618.25 903C2643.4 852.559 2659.97 794.24 2664.09 738C2665.39 720.225 2669.69 691.475 2658.35 676.04C2650.72 665.649 2633.87 661.38 2622 658.374C2588.79 649.963 2549.18 644.936 2515 649.424z"/>
<path style="fill:#01ffff; stroke:none;" d="M2573 650L2574 651L2573 650M2650 669L2651 670L2650 669z"/>
<path style="fill:#01abe1; stroke:none;" d="M861 670.529C846.973 673.75 845.945 691.04 853.532 701C871.493 724.578 899.309 745.106 922 764.08C1011.18 838.659 1107.71 903.486 1213 953.219C1524.9 1100.55 1886.38 1113.08 2209 992.424C2283.09 964.716 2353.97 930.089 2421 888.05C2449.29 870.31 2483.38 850.924 2505.9 826C2527.47 802.112 2503.24 769.795 2474 778.774C2441.67 788.7 2410.72 806.508 2379 818.576C2309.77 844.911 2239.13 868.016 2167 885.116C2044.73 914.103 1919.56 931.502 1794 932.996C1613.63 935.142 1433.12 904.462 1261 850.975C1162 820.208 1063.7 779.417 973 729.139C946.765 714.596 920.695 699.898 895 684.399C885.291 678.542 873.231 667.721 861 670.529z"/>
<path style="fill:#01ffff; stroke:none;" d="M2653 671L2654 672L2653 671M891 682L892 683L891 682M2661 682L2662 683L2661 682M921 700L922 701L921 700M2327 714L2328 715L2327 714M868 715L869 716L868 715M949 716L950 717L949 716M2518 727L2519 728L2518 727M883 729L884 730L883 729M2543 731L2544 732L2543 731M2553 734L2554 735L2553 734M986 736L987 737L986 736M2354 736L2355 737L2354 736M894 739L895 740L894 739M2663 745L2664 746L2663 745M904 748L905 749L904 748M912 755L913 756L912 755M1044 765L1045 766L1044 765M926 767L927 768L926 767M1061 773L1062 774L1061 773M944 782L945 783L944 782M1125 801L1126 802L1125 801M969 802L970 803L969 802M2576 802L2577 803L2576 802M2653 802L2654 803L2653 802M2652 806L2653 807L2652 806M982 812L983 813L982 812M2574 814L2575 815L2574 814M1165 817L1166 818L1165 817M994 821L995 822L994 821M2572 824L2573 825L2572 824M1200 830L1201 831L1200 830M2570 833L2571 834L2570 833M1214 835L1215 836L1214 835M1016 837L1017 838L1016 837M2643 838L2644 839L2643 838M2319 840L2320 841L2319 840M1026 844L1027 845L1026 844M2566 849L2567 850L2566 849M1262 851L1263 852L1262 851M1039 853L1040 854L1039 853M1042 855L1043 856L1042 855M2468 855L2469 856L2468 855M1045 857L1046 858L1045 857M1054 863L1055 864L1054 863M1057 865L1058 866L1057 865M1060 867L1061 868L1060 867M1326 870L1327 871L1326 870M1337 873L1338 874L1337 873M1074 876L1075 877L1074 876M1356 878L1357 879L1356 878M1082 881L1083 882L1082 881M1372 882L1373 883L1372 882M1376 883L1377 884L1376 883M2556 884L2557 885L2556 884M2421 887L2422 888L2421 887M1397 888L1398 889L1397 888M1095 889L1096 890L1095 889M2135 892L2136 893L2135 892M2413 892L2414 893L2413 892M2622 893L2623 894L2622 893M1110 898L1111 899L1110 898M1448 899L1449 900L1448 899M2400 900L2401 901L2400 900M1469 903L1470 904L1469 903M1122 905L1123 906L1122 905M2549 906L2550 907L2549 906M1129 909L1130 910L1129 909M2383 910L2384 911L2383 910M1549 916L1550 917L1549 916M1147 919L1148 920L1147 919M1580 920L1581 921L1580 920M2544 921L2545 922L2544 921M1597 922L1598 923L1597 922M2603 930L2604 931L2603 930M2536 944L2537 945L2536 944M2585 958L2586 959L2585 958M2239 980L2240 981L2239 980M2567 981L2568 982L2567 981M2521 985L2522 986L2521 985M2208 992L2209 993L2208 992M2200 995L2201 996L2200 995M2186 1000L2187 1001L2186 1000M2539 1008L2540 1009L2539 1008M2141 1015L2142 1016L2141 1015M2128 1019L2129 1020L2128 1019M2111 1024L2112 1025L2111 1024M2104 1026L2105 1027L2104 1026M2050 1040L2051 1041L2050 1040M2004 1050L2005 1051L2004 1050M1972 1056L1973 1057L1972 1056M1826 1073L1827 1074L1826 1073z"/>
</svg>
